<svg version="1.1" xmlns="http://www.w3.org/2000/svg" viewBox="0 0 635.8469696044922 431.75506591796875" width="1271.6939392089844" height="863.5101318359375">
    <!-- svg-source:excalidraw -->

    <defs>
        <style class="style-fonts">
            @font-face {
            font-family: "Virgil";
            src: url("./fonts/Virgil.woff2");
            }
            @font-face {
            font-family: "Cascadia";
            src: url("./fonts/Cascadia.woff2");
            }
        </style>
    </defs>
    <rect x="0" y="0" width="635.8469696044922" height="431.75506591796875" fill="#ffffff"></rect><g transform="translate(39.47865295410156 42.89259338378906) rotate(0 188.32984924316406 12.5)"><text x="0" y="0" font-family="Virgil, Segoe UI Emoji" font-size="20px" fill="#1e1e1e" text-anchor="start" style="white-space: pre;" direction="ltr" dominant-baseline="text-before-edge">http://localhost:4200/books;query=jav</text></g><g stroke-linecap="round" transform="translate(26.158050537109375 34.90617370605469) rotate(0 290.6777801513672 18.756515502929688)"><path d="M9.38 0 M9.38 0 C216.9 2.03, 423.78 1.69, 571.98 0 M9.38 0 C203.06 -0.83, 396.96 -0.55, 571.98 0 M571.98 0 C578.88 -1.49, 581.96 3.17, 581.36 9.38 M571.98 0 C576.38 1.01, 579.85 2.53, 581.36 9.38 M581.36 9.38 C582.13 14.3, 580.27 22.16, 581.36 28.13 M581.36 9.38 C581.98 13.87, 581.61 18.61, 581.36 28.13 M581.36 28.13 C583.26 33.32, 576.92 36.4, 571.98 37.51 M581.36 28.13 C581.45 34.95, 580.4 36.13, 571.98 37.51 M571.98 37.51 C361.93 38.11, 153.14 37.84, 9.38 37.51 M571.98 37.51 C379.78 38.56, 188.46 39.02, 9.38 37.51 M9.38 37.51 C1.58 36.16, 1.18 35.59, 0 28.13 M9.38 37.51 C4.46 38.05, 1.4 32.25, 0 28.13 M0 28.13 C0.07 21.85, -1.92 13.88, 0 9.38 M0 28.13 C0.6 23.15, 0.17 18.01, 0 9.38 M0 9.38 C1.18 3.09, 3.88 1.71, 9.38 0 M0 9.38 C-1.47 2.28, 4.06 -0.98, 9.38 0" stroke="#1e1e1e" stroke-width="1" fill="none"></path></g><g stroke-linecap="round" transform="translate(18.143569946289062 83.77809143066406) rotate(0 299.62274169921875 163.5213165283203)"><path d="M32 0 M32 0 C229.41 1.06, 426.39 0.82, 567.25 0 M32 0 C201.37 0.52, 370.45 0.45, 567.25 0 M567.25 0 C589.57 0.79, 598.92 11.25, 599.25 32 M567.25 0 C588.44 0.2, 600.78 9.88, 599.25 32 M599.25 32 C596.83 114.49, 598.87 198.63, 599.25 295.04 M599.25 32 C600.82 102.98, 600.01 172.51, 599.25 295.04 M599.25 295.04 C598.82 317.18, 589.66 327.21, 567.25 327.04 M599.25 295.04 C597.05 314.67, 586.9 325.17, 567.25 327.04 M567.25 327.04 C382.12 326.54, 198.21 327.59, 32 327.04 M567.25 327.04 C425.09 327.25, 283.28 327.77, 32 327.04 M32 327.04 C12.43 325.26, 0.33 317.02, 0 295.04 M32 327.04 C11.2 324.91, 0.32 314.16, 0 295.04 M0 295.04 C-1.15 236.13, 0.26 178.45, 0 32 M0 295.04 C0.88 233.97, 0.81 172.79, 0 32 M0 32 C1.71 11.46, 8.94 -1.95, 32 0 M0 32 C0.61 12.31, 9.25 1.24, 32 0" stroke="#1e1e1e" stroke-width="1" fill="none"></path></g><g stroke-linecap="round" transform="translate(67.46119689941406 135.691650390625) rotate(0 119.20108032226562 26.557937622070312)"><path d="M13.28 0 M13.28 0 C72.96 0.91, 128.87 1.83, 225.12 0 M13.28 0 C70.13 -0.18, 126.3 0.37, 225.12 0 M225.12 0 C234.46 1.07, 238.19 5.86, 238.4 13.28 M225.12 0 C234.34 1.65, 237.53 2.55, 238.4 13.28 M238.4 13.28 C236.82 22.16, 238.73 31.97, 238.4 39.84 M238.4 13.28 C237.89 21.95, 237.74 31.2, 238.4 39.84 M238.4 39.84 C237.28 48.4, 232.8 54.8, 225.12 53.12 M238.4 39.84 C238.17 50.58, 235.3 55.07, 225.12 53.12 M225.12 53.12 C172.9 53.85, 121.25 51.86, 13.28 53.12 M225.12 53.12 C178.43 53.69, 132.16 52.19, 13.28 53.12 M13.28 53.12 C3 52.46, -0.67 48.15, 0 39.84 M13.28 53.12 C3.27 51.8, 1.27 46.9, 0 39.84 M0 39.84 C-0.13 32.17, -0.04 25.11, 0 13.28 M0 39.84 C-0.72 30.63, 0.15 21.74, 0 13.28 M0 13.28 C1.03 5.84, 3.91 -1.48, 13.28 0 M0 13.28 C-1.42 5.72, 5.14 -1.19, 13.28 0" stroke="#1e1e1e" stroke-width="1" fill="none"></path></g><g stroke-linecap="round" transform="translate(318.8896026611328 139.69569396972656) rotate(0 45.6849365234375 22.813003540039062)"><path d="M3.04 2.64 C3.04 2.64, 3.04 2.64, 3.04 2.64 M3.04 2.64 C3.04 2.64, 3.04 2.64, 3.04 2.64 M2.12 9.79 C3.9 7.43, 6.67 5.24, 9.99 0.74 M2.12 9.79 C4.56 7.14, 7.37 4.62, 9.99 0.74 M1.86 16.19 C4.11 13.17, 9.75 9.85, 13.67 2.6 M1.86 16.19 C5.94 12.46, 9.94 7.33, 13.67 2.6 M1.6 22.59 C8.88 17.03, 14.91 7.9, 19.31 2.21 M1.6 22.59 C5.27 18.27, 11.52 12.86, 19.31 2.21 M1.99 28.23 C7.01 22.03, 11.11 17.55, 24.3 2.57 M1.99 28.23 C9.02 20.7, 15.66 12.96, 24.3 2.57 M1.73 34.63 C8.76 26.73, 13.07 19.44, 29.94 2.18 M1.73 34.63 C11.6 23.27, 21.08 11.37, 29.94 2.18 M2.78 39.52 C12.05 30.54, 19.4 19.32, 34.93 2.54 M2.78 39.52 C9.11 31.56, 16.56 24.62, 34.93 2.54 M5.14 42.9 C10.61 35.34, 20.45 26.44, 40.57 2.14 M5.14 42.9 C15.51 29.97, 26.82 18.75, 40.57 2.14 M7.51 46.27 C17.95 33.2, 29.45 18.46, 45.56 2.5 M7.51 46.27 C21.53 28.16, 37.69 11.88, 45.56 2.5 M12.49 46.63 C27.13 30.83, 36.65 17.41, 51.2 2.11 M12.49 46.63 C24.23 33.61, 34.3 21.28, 51.2 2.11 M18.14 46.24 C32.01 30.74, 43.02 17.34, 56.19 2.47 M18.14 46.24 C27.65 34.12, 39.02 23.05, 56.19 2.47 M23.12 46.6 C38.73 30.04, 53.62 14.86, 61.83 2.07 M23.12 46.6 C34.33 33.29, 48.11 19.79, 61.83 2.07 M28.11 46.96 C36.68 34.48, 50.52 23.28, 66.82 2.43 M28.11 46.96 C38.87 34.82, 48.77 21.91, 66.82 2.43 M33.75 46.57 C42.22 36.34, 53.92 24.69, 72.46 2.04 M33.75 46.57 C45.17 33.99, 54.03 21.42, 72.46 2.04 M38.74 46.93 C49.17 36.36, 60.54 24.25, 77.45 2.4 M38.74 46.93 C51.86 31.7, 63.72 18.36, 77.45 2.4 M44.38 46.53 C53.78 33.02, 68.14 22.13, 82.43 2.76 M44.38 46.53 C55.61 33.48, 65.84 20.3, 82.43 2.76 M49.37 46.89 C66.44 29.59, 80.15 10.96, 88.08 2.36 M49.37 46.89 C62.24 31.56, 78.03 14.97, 88.08 2.36 M55.01 46.5 C65.21 32.61, 76.86 19.95, 90.44 5.74 M55.01 46.5 C66.89 32.17, 79.56 18.31, 90.44 5.74 M60 46.86 C66.29 38.37, 74.02 27.22, 92.15 9.88 M60 46.86 C71.31 32.07, 84.75 18.01, 92.15 9.88 M65.64 46.46 C74.03 38.9, 79.69 28.03, 92.54 15.52 M65.64 46.46 C73.17 38.49, 78.61 29.63, 92.54 15.52 M70.63 46.82 C77.42 35.81, 86.41 27.6, 92.28 21.92 M70.63 46.82 C75.26 39.47, 81.83 34.33, 92.28 21.92 M76.27 46.43 C83.1 37.81, 87.41 31.72, 92.67 27.56 M76.27 46.43 C80.32 40.57, 86.97 34.82, 92.67 27.56 M81.26 46.79 C86.06 43.82, 86.53 38.18, 91.76 34.71 M81.26 46.79 C84.33 44.33, 87.35 41.17, 91.76 34.71" stroke="#a5d8ff" stroke-width="0.5" fill="none"></path><path d="M11.41 0 M11.41 0 C25 -0.1, 41.32 0.7, 79.96 0 M11.41 0 C26.37 0.34, 40.73 -1.03, 79.96 0 M79.96 0 C87.96 1.37, 93.21 3.77, 91.37 11.41 M79.96 0 C86.26 -1.96, 89.88 5.13, 91.37 11.41 M91.37 11.41 C89.83 21.41, 90.68 27.61, 91.37 34.22 M91.37 11.41 C91.91 20.42, 91.35 29.03, 91.37 34.22 M91.37 34.22 C90.68 42.04, 85.83 44.08, 79.96 45.63 M91.37 34.22 C89.6 41.94, 89.79 45.8, 79.96 45.63 M79.96 45.63 C55.53 47.15, 31.67 47.01, 11.41 45.63 M79.96 45.63 C54.38 46.08, 26.26 45.89, 11.41 45.63 M11.41 45.63 C2.08 44.14, 1.71 41.02, 0 34.22 M11.41 45.63 C4.93 46.83, -1.21 40.93, 0 34.22 M0 34.22 C0.13 28.83, 1.95 23.35, 0 11.41 M0 34.22 C-0.62 29.1, 0.24 24.4, 0 11.41 M0 11.41 C-0.46 2.43, 2.53 1.26, 11.41 0 M0 11.41 C-0.81 2.49, 2.55 0.9, 11.41 0" stroke="#1e1e1e" stroke-width="1" fill="none"></path></g><g transform="translate(332.09456634521484 150.00869750976562) rotate(0 32.47997283935547 12.5)"><text x="32.47997283935547" y="0" font-family="Virgil, Segoe UI Emoji" font-size="20px" fill="#1e1e1e" text-anchor="middle" style="white-space: pre;" direction="ltr" dominant-baseline="text-before-edge">Search</text></g><g transform="translate(141.2299346923828 243.75230407714844) rotate(0 32.66996765136719 12.5)"><text x="0" y="0" font-family="Virgil, Segoe UI Emoji" font-size="20px" fill="#1e1e1e" text-anchor="start" style="white-space: pre;" direction="ltr" dominant-baseline="text-before-edge">Author</text></g><g transform="translate(325.73628997802734 243.49693298339844) rotate(0 23.97997283935547 12.5)"><text x="0" y="0" font-family="Virgil, Segoe UI Emoji" font-size="20px" fill="#1e1e1e" text-anchor="start" style="white-space: pre;" direction="ltr" dominant-baseline="text-before-edge">Title</text></g><g transform="translate(68.38333129882812 245.2948455810547) rotate(0 7.969993591308594 12.5)"><text x="0" y="0" font-family="Virgil, Segoe UI Emoji" font-size="20px" fill="#1e1e1e" text-anchor="start" style="white-space: pre;" direction="ltr" dominant-baseline="text-before-edge">#</text></g><g stroke-linecap="round"><g transform="translate(66.12674578640156 368.2598559021949) rotate(0 252.89883161783223 2.6898976683616524)"><path d="M-0.71 -1.12 C83.82 0.13, 422.28 5.4, 506.51 6.5 M1.11 0.91 C85.63 1.93, 421.73 3.96, 506.06 4.95" stroke="#1e1e1e" stroke-width="1" fill="none"></path></g></g><mask></mask><g transform="translate(85.75624084472656 149.5900115966797) rotate(0 15.17999267578125 12.5)"><text x="0" y="0" font-family="Virgil, Segoe UI Emoji" font-size="20px" fill="#1e1e1e" text-anchor="start" style="white-space: pre;" direction="ltr" dominant-baseline="text-before-edge">jav</text></g><g transform="translate(70.55879211425781 288.4027557373047) rotate(0 2.7099990844726562 12.5)"><text x="0" y="0" font-family="Virgil, Segoe UI Emoji" font-size="20px" fill="#1e1e1e" text-anchor="start" style="white-space: pre;" direction="ltr" dominant-baseline="text-before-edge">1</text></g><g transform="translate(115.73469543457031 288.49339294433594) rotate(0 64.99994659423828 12.5)"><text x="0" y="0" font-family="Virgil, Segoe UI Emoji" font-size="20px" fill="#1e1e1e" text-anchor="start" style="white-space: pre;" direction="ltr" dominant-baseline="text-before-edge">Joshua Bloch</text></g><g transform="translate(287.8814163208008 288.49339294433594) rotate(0 137.35989379882812 12.5)"><text x="0" y="0" font-family="Virgil, Segoe UI Emoji" font-size="20px" fill="#1e1e1e" text-anchor="start" style="white-space: pre;" direction="ltr" dominant-baseline="text-before-edge">Effective Java Programming</text></g><g stroke-linecap="round"><g transform="translate(63.12938188314433 322.69314371347434) rotate(0 253.31495304980314 2.4593324065208435)"><path d="M0.99 -0.88 C85.23 -0.08, 420.43 4.79, 504.45 5.8 M0.06 1.27 C84.73 2.22, 422.57 3.03, 506.57 3.89" stroke="#1e1e1e" stroke-width="1" fill="none"></path></g></g><mask></mask><g stroke-linecap="round"><g transform="translate(65.97095088086087 275.85650926828373) rotate(0 252.23821099784698 2.491950359153549)"><path d="M0.27 0.27 C84.42 1.17, 421.41 4.6, 505.52 5.62 M-1.05 -0.63 C82.88 -0.14, 420.39 2.75, 504.55 3.61" stroke="#1e1e1e" stroke-width="1" fill="none"></path></g></g><mask></mask><g transform="translate(69.48466873168945 334.94422912597656) rotate(0 7.1199951171875 12.5)"><text x="0" y="0" font-family="Virgil, Segoe UI Emoji" font-size="20px" fill="#1e1e1e" text-anchor="start" style="white-space: pre;" direction="ltr" dominant-baseline="text-before-edge">2</text></g><g transform="translate(114.66057205200195 335.0348663330078) rotate(0 62.099945068359375 12.5)"><text x="0" y="0" font-family="Virgil, Segoe UI Emoji" font-size="20px" fill="#1e1e1e" text-anchor="start" style="white-space: pre;" direction="ltr" dominant-baseline="text-before-edge">D. Crockford</text></g><g stroke-linecap="round" transform="translate(10 10) rotate(0 307.9234848022461 205.87753295898438)"><path d="M32 0 M32 0 C153.65 1.68, 275.66 0.28, 583.85 0 M32 0 C215.35 -0.63, 398.96 -0.38, 583.85 0 M583.85 0 C605.78 1.62, 616.38 10.36, 615.85 32 M583.85 0 C604.09 -0.43, 614.85 8.89, 615.85 32 M615.85 32 C615.47 140.85, 616.4 248.22, 615.85 379.76 M615.85 32 C613.5 125.39, 613.32 218.11, 615.85 379.76 M615.85 379.76 C614.87 401.54, 604.98 410.96, 583.85 411.76 M615.85 379.76 C613.63 399.07, 604.76 412.67, 583.85 411.76 M583.85 411.76 C397.49 409.03, 211.9 408.82, 32 411.76 M583.85 411.76 C402.95 410.88, 223.18 410.27, 32 411.76 M32 411.76 C9.61 413.17, 1.28 403, 0 379.76 M32 411.76 C11.78 410.81, 0.69 401.84, 0 379.76 M0 379.76 C0.1 288.48, -1.07 197.46, 0 32 M0 379.76 C-0.54 264.74, -0.15 150.32, 0 32 M0 32 C1.85 10.29, 9.45 -0.4, 32 0 M0 32 C-0.17 11.72, 8.91 1.35, 32 0" stroke="#1e1e1e" stroke-width="1" fill="none"></path></g><g transform="translate(286.8072929382324 335.0348663330078) rotate(0 142.5898895263672 12.5)"><text x="0" y="0" font-family="Virgil, Segoe UI Emoji" font-size="20px" fill="#1e1e1e" text-anchor="start" style="white-space: pre;" direction="ltr" dominant-baseline="text-before-edge">JavaScript. The Good Parts</text></g><g stroke-linecap="round"><g transform="translate(440.75817325063554 67.44313049316406) rotate(0 -93.35816895015324 22.04348159255248)"><path d="M-42.21 -0.35 C-53.1 2.19, -90.11 8.95, -107.11 16.38 C-124.1 23.81, -137.98 39.8, -144.18 44.2 M-43.6 -1.59 C-54.73 1.65, -91.4 9.84, -108.22 17.71 C-125.04 25.59, -138.59 41.41, -144.51 45.67" stroke="#1e1e1e" stroke-width="1" fill="none"></path></g><g transform="translate(440.75817325063554 67.44313049316406) rotate(0 -93.35816895015324 22.04348159255248)"><path d="M-133.91 24.55 C-137.71 33.71, -140.49 40.69, -146.38 46.15 M-132.54 24.85 C-136.83 32.67, -141.22 41.36, -145.23 44.79" stroke="#1e1e1e" stroke-width="1" fill="none"></path></g><g transform="translate(440.75817325063554 67.44313049316406) rotate(0 -93.35816895015324 22.04348159255248)"><path d="M-123.29 36.56 C-130.92 41.52, -137.43 44.29, -146.38 46.15 M-121.92 36.86 C-130.55 39.79, -139.19 43.68, -145.23 44.79" stroke="#1e1e1e" stroke-width="1" fill="none"></path></g></g><mask></mask><g stroke-linecap="round"><g transform="translate(283.5470672072797 115.73242500864899) rotate(0 -86.57553902662363 13.7564844469278)"><path d="M-1.19 0.43 C-21.54 -0.36, -92.68 -11.36, -121.34 -5.8 C-150 -0.25, -164.55 27.15, -173.15 33.76 M0.39 -0.4 C-20.21 -0.88, -93.47 -10.09, -122.46 -4.22 C-151.44 1.66, -165.24 28.37, -173.54 34.88" stroke="#1e1e1e" stroke-width="1" fill="none"></path></g><g transform="translate(283.5470672072797 115.73242500864899) rotate(0 -86.57553902662363 13.7564844469278)"><path d="M-161.55 6.53 C-166.42 18.22, -171.29 28.56, -173.97 34.04 M-162.01 7.62 C-165.55 13.45, -167.94 20.15, -173.15 33.93" stroke="#1e1e1e" stroke-width="1" fill="none"></path></g><g transform="translate(283.5470672072797 115.73242500864899) rotate(0 -86.57553902662363 13.7564844469278)"><path d="M-146.32 20.28 C-156.57 26.85, -166.94 32.23, -173.97 34.04 M-146.78 21.38 C-153.66 24.16, -159.43 27.81, -173.15 33.93" stroke="#1e1e1e" stroke-width="1" fill="none"></path></g></g><mask></mask><g stroke-linecap="round"><g transform="translate(294.5191192626953 118.19447326660156) rotate(0 -26.369528720709525 67.56584781221113)"><path d="M-0.07 -0.18 C-3.25 13.92, -10.88 62.44, -19.61 84.96 C-28.34 107.48, -46.69 126.83, -52.48 134.96 M-1.57 -1.32 C-4.82 12.36, -11.76 60, -20.27 82.96 C-28.79 105.92, -46.97 127.88, -52.67 136.45" stroke="#1e1e1e" stroke-width="1" fill="none"></path></g><g transform="translate(294.5191192626953 118.19447326660156) rotate(0 -26.369528720709525 67.56584781221113)"><path d="M-44.84 108.48 C-46.14 116.78, -48.06 121.13, -54.18 134.99 M-45.48 106.83 C-47.37 115.32, -47.64 122.77, -53.63 136.11" stroke="#1e1e1e" stroke-width="1" fill="none"></path></g><g transform="translate(294.5191192626953 118.19447326660156) rotate(0 -26.369528720709525 67.56584781221113)"><path d="M-28.18 120.46 C-33.78 125.68, -39.96 126.97, -54.18 134.99 M-28.81 118.8 C-34.84 124.26, -39.23 128.75, -53.63 136.11" stroke="#1e1e1e" stroke-width="1" fill="none"></path></g></g><mask></mask><g stroke-linecap="round"><g transform="translate(409.71888732910156 163.86293029785156) rotate(0 33.885015384507824 -48.77272513397969)"><path d="M0.79 -1.03 C12.05 -6.17, 65.7 -14.28, 67.95 -30.23 C70.2 -46.18, 23.22 -85.58, 14.27 -96.72 M-0.26 1.04 C10.79 -3.92, 64.09 -11.99, 66.91 -28.6 C69.72 -45.2, 25.47 -86.79, 16.64 -98.58" stroke="#1e1e1e" stroke-width="1" fill="none"></path></g><g transform="translate(409.71888732910156 163.86293029785156) rotate(0 33.885015384507824 -48.77272513397969)"><path d="M41.32 -84.65 C34.51 -90.56, 26.92 -95.39, 17.56 -97.75 M44.01 -83.69 C34.52 -87.91, 27.55 -92.37, 15.86 -97.97" stroke="#1e1e1e" stroke-width="1" fill="none"></path></g><g transform="translate(409.71888732910156 163.86293029785156) rotate(0 33.885015384507824 -48.77272513397969)"><path d="M25.99 -71.01 C24.21 -81.56, 21.73 -90.93, 17.56 -97.75 M28.68 -70.05 C23.77 -78.57, 21.51 -87.23, 15.86 -97.97" stroke="#1e1e1e" stroke-width="1" fill="none"></path></g></g><mask></mask><g transform="translate(280.6219024658203 189.52549743652344) rotate(0 73.18992614746094 25)"><text x="0" y="0" font-family="Virgil, Segoe UI Emoji" font-size="20px" fill="#1e1e1e" text-anchor="start" style="white-space: pre;" direction="ltr" dominant-baseline="text-before-edge">hit a service</text><text x="0" y="25" font-family="Virgil, Segoe UI Emoji" font-size="20px" fill="#1e1e1e" text-anchor="start" style="white-space: pre;" direction="ltr" dominant-baseline="text-before-edge">to find results</text></g></svg>
