<svg version="1.1" xmlns="http://www.w3.org/2000/svg" viewBox="0 0 635.8469696044922 431.75506591796875" width="1271.6939392089844" height="863.5101318359375">
    <!-- svg-source:excalidraw -->

    <defs>
        <style class="style-fonts">
            @font-face {
            font-family: "Virgil";
            src: url("./fonts/Virgil.woff2");
            }
            @font-face {
            font-family: "Cascadia";
            src: url("./fonts/Cascadia.woff2");
            }
        </style>
    </defs>
    <rect x="0" y="0" width="635.8469696044922" height="431.75506591796875" fill="#ffffff"></rect><g transform="translate(39.47865295410156 42.89259338378906) rotate(0 216.19985961914062 12.5)"><text x="0" y="0" font-family="Virgil, Segoe UI Emoji" font-size="20px" fill="#1e1e1e" text-anchor="start" style="white-space: pre;" direction="ltr" dominant-baseline="text-before-edge">http://localhost:4200/books;query=jav/1040</text></g><g stroke-linecap="round" transform="translate(26.158050537109375 34.90617370605469) rotate(0 290.6777801513672 18.756515502929688)"><path d="M9.38 0 M9.38 0 C156.93 -1.61, 303.21 -0.51, 571.98 0 M9.38 0 C183.39 2.07, 357.14 1.49, 571.98 0 M571.98 0 C577.57 -1.03, 579.94 4.68, 581.36 9.38 M571.98 0 C579.31 -1.44, 580.63 4.29, 581.36 9.38 M581.36 9.38 C580.3 15.87, 582.94 18.97, 581.36 28.13 M581.36 9.38 C582.05 14.89, 581.02 20.61, 581.36 28.13 M581.36 28.13 C582.92 35.35, 580.05 38.58, 571.98 37.51 M581.36 28.13 C582.42 35.74, 578.29 35.91, 571.98 37.51 M571.98 37.51 C433.66 39.47, 294.84 39.53, 9.38 37.51 M571.98 37.51 C440.46 38.83, 308.88 38.77, 9.38 37.51 M9.38 37.51 C2.91 38.86, -1.45 33.57, 0 28.13 M9.38 37.51 C3.09 36.8, -0.68 34.44, 0 28.13 M0 28.13 C-0.5 21.6, 0.55 13.67, 0 9.38 M0 28.13 C0.6 23.15, 0.03 18.4, 0 9.38 M0 9.38 C-0.08 3.23, 4.5 0.21, 9.38 0 M0 9.38 C-0.73 3.08, 4.76 0.33, 9.38 0" stroke="#1e1e1e" stroke-width="1" fill="none"></path></g><g stroke-linecap="round" transform="translate(18.143569946289062 83.77809143066406) rotate(0 299.62274169921875 163.5213165283203)"><path d="M32 0 M32 0 C218.95 1.97, 405.49 1.72, 567.25 0 M32 0 C152.28 -2.17, 272.12 -2.16, 567.25 0 M567.25 0 C587.17 1.56, 600.18 9.41, 599.25 32 M567.25 0 C587.86 1.17, 598.61 9.86, 599.25 32 M599.25 32 C599.54 126.89, 598.13 221.74, 599.25 295.04 M599.25 32 C600.89 88.38, 601.69 145.14, 599.25 295.04 M599.25 295.04 C601.07 317.44, 589.51 328.22, 567.25 327.04 M599.25 295.04 C599.3 314.77, 587.35 328.27, 567.25 327.04 M567.25 327.04 C357.21 326.64, 146.42 326.82, 32 327.04 M567.25 327.04 C368.04 325.06, 169.23 325.69, 32 327.04 M32 327.04 C9.22 326.22, -0.03 315.76, 0 295.04 M32 327.04 C9.98 327.1, 0.89 316.08, 0 295.04 M0 295.04 C1.04 233.55, -0.22 174.79, 0 32 M0 295.04 C-1.26 229.12, -1.3 163.9, 0 32 M0 32 C1.38 10.88, 10.03 -0.04, 32 0 M0 32 C1.63 11, 12.57 0.63, 32 0" stroke="#1e1e1e" stroke-width="1" fill="none"></path></g><g stroke-linecap="round" transform="translate(65.78199768066406 170.55593872070312) rotate(0 174.33502197265625 26.557937622070312)"><path d="M13.28 0 M13.28 0 C89.32 -1.05, 164.06 -0.92, 335.39 0 M13.28 0 C139.1 0.84, 264.89 1.74, 335.39 0 M335.39 0 C345.18 -1.26, 348.04 5.44, 348.67 13.28 M335.39 0 C343.6 -0.81, 350.11 3.21, 348.67 13.28 M348.67 13.28 C348.89 21.85, 347.19 34.88, 348.67 39.84 M348.67 13.28 C349.39 21.43, 349.52 29.16, 348.67 39.84 M348.67 39.84 C349.6 49.87, 344.29 51.72, 335.39 53.12 M348.67 39.84 C347.44 49.92, 346.37 53.99, 335.39 53.12 M335.39 53.12 C242.96 53.14, 153.38 52.66, 13.28 53.12 M335.39 53.12 C263.04 51.55, 190.34 50.8, 13.28 53.12 M13.28 53.12 C4.4 52.5, -0.59 48.74, 0 39.84 M13.28 53.12 C5.32 52.82, -1.65 48.04, 0 39.84 M0 39.84 C-1.1 31.8, -1.09 25.62, 0 13.28 M0 39.84 C-0.04 32.82, 0.69 25.81, 0 13.28 M0 13.28 C-0.64 4.39, 5.84 0.29, 13.28 0 M0 13.28 C1.9 5.05, 2.97 0.61, 13.28 0" stroke="#1e1e1e" stroke-width="1" fill="none"></path></g><g stroke-linecap="round" transform="translate(71.36219787597656 329.20701599121094) rotate(0 45.6849365234375 22.813003540039062)"><path d="M3.04 2.64 C3.04 2.64, 3.04 2.64, 3.04 2.64 M3.04 2.64 C3.04 2.64, 3.04 2.64, 3.04 2.64 M2.12 9.79 C3.77 8.13, 5.67 5.83, 9.99 0.74 M2.12 9.79 C4.8 5.76, 8.78 2.69, 9.99 0.74 M1.86 16.19 C6 13.96, 9.38 9.38, 13.67 2.6 M1.86 16.19 C5.61 11.88, 11.17 6.86, 13.67 2.6 M1.6 22.59 C5.27 17.11, 13.07 10.63, 19.31 2.21 M1.6 22.59 C5.58 18.85, 8.93 13.19, 19.31 2.21 M1.99 28.23 C8.78 21.41, 15.13 11.54, 24.3 2.57 M1.99 28.23 C7.14 20.68, 13.98 13.71, 24.3 2.57 M1.73 34.63 C11.16 22.85, 22.27 12.61, 29.94 2.18 M1.73 34.63 C11.3 24.7, 20.18 14.75, 29.94 2.18 M2.78 39.52 C8.78 31.39, 18.99 21.91, 34.93 2.54 M2.78 39.52 C15.46 25.61, 26.27 11.19, 34.93 2.54 M5.14 42.9 C15.6 29.36, 29.75 18.34, 40.57 2.14 M5.14 42.9 C13.44 33.9, 20.32 26.04, 40.57 2.14 M7.51 46.27 C18.43 29.28, 32.81 17.31, 45.56 2.5 M7.51 46.27 C22.28 29.05, 36.81 11.81, 45.56 2.5 M12.49 46.63 C21.79 35.37, 31.93 25.22, 51.2 2.11 M12.49 46.63 C21.38 37.29, 31.55 25.73, 51.2 2.11 M18.14 46.24 C29.6 34.25, 42.1 16.95, 56.19 2.47 M18.14 46.24 C27.68 36.59, 36.79 25.01, 56.19 2.47 M23.12 46.6 C33.97 33.26, 43.04 22.82, 61.83 2.07 M23.12 46.6 C31.31 37.21, 41.66 25.19, 61.83 2.07 M28.11 46.96 C38.96 34.91, 51.37 20.47, 66.82 2.43 M28.11 46.96 C40.37 32.02, 51.69 18.94, 66.82 2.43 M33.75 46.57 C48.51 32.58, 60.05 16.05, 72.46 2.04 M33.75 46.57 C43.07 36.58, 51.37 26.29, 72.46 2.04 M38.74 46.93 C52.81 33.26, 63.02 17.82, 77.45 2.4 M38.74 46.93 C47.54 36.78, 56.28 27.95, 77.45 2.4 M44.38 46.53 C57.22 33.62, 68.31 20.7, 82.43 2.76 M44.38 46.53 C59.08 28.68, 74.87 11.64, 82.43 2.76 M49.37 46.89 C56.16 36.39, 65.02 25.97, 88.08 2.36 M49.37 46.89 C61.2 32.93, 73.48 19.16, 88.08 2.36 M55.01 46.5 C63.89 37.5, 70.91 26.22, 90.44 5.74 M55.01 46.5 C63.24 36.33, 70.91 28.03, 90.44 5.74 M60 46.86 C67.51 34.55, 78.19 27.37, 92.15 9.88 M60 46.86 C69.28 36.86, 77.19 27.08, 92.15 9.88 M65.64 46.46 C72.22 37.26, 79.52 29.11, 92.54 15.52 M65.64 46.46 C77.48 33.99, 87.62 22.36, 92.54 15.52 M70.63 46.82 C77.27 39.71, 80.81 35.44, 92.28 21.92 M70.63 46.82 C76.2 39.11, 82.78 31.92, 92.28 21.92 M76.27 46.43 C83.28 41.14, 90.05 31.04, 92.67 27.56 M76.27 46.43 C81.16 41.65, 86.59 35.03, 92.67 27.56 M81.26 46.79 C85.66 43.62, 87.41 39.3, 91.76 34.71 M81.26 46.79 C83.18 43.96, 85.05 41.16, 91.76 34.71" stroke="#a5d8ff" stroke-width="0.5" fill="none"></path><path d="M11.41 0 M11.41 0 C34.66 0.58, 59.18 0.32, 79.96 0 M11.41 0 C33.33 -0.32, 54.95 0.52, 79.96 0 M79.96 0 C86.51 0.63, 92.24 3.12, 91.37 11.41 M79.96 0 C89.18 -0.01, 93.4 4.81, 91.37 11.41 M91.37 11.41 C91.87 16.54, 93.2 24.35, 91.37 34.22 M91.37 11.41 C91.44 18.51, 91.91 26.95, 91.37 34.22 M91.37 34.22 C91.42 42.33, 86.72 45.79, 79.96 45.63 M91.37 34.22 C90.63 42.37, 85.34 43.86, 79.96 45.63 M79.96 45.63 C63.81 47.37, 45.48 43.58, 11.41 45.63 M79.96 45.63 C61.29 45.94, 41.53 45.92, 11.41 45.63 M11.41 45.63 C2.01 47.21, -1.76 42.01, 0 34.22 M11.41 45.63 C6.01 44.52, 0.98 41.82, 0 34.22 M0 34.22 C-0.3 29.98, 0.5 21.32, 0 11.41 M0 34.22 C0.1 28.7, 1.09 22.82, 0 11.41 M0 11.41 C0.09 2.91, 3.28 -1.05, 11.41 0 M0 11.41 C-1 5.6, 2.48 -0.42, 11.41 0" stroke="#1e1e1e" stroke-width="1" fill="none"></path></g><g transform="translate(93.59715270996094 339.52001953125) rotate(0 23.449981689453125 12.5)"><text x="23.449981689453125" y="0" font-family="Virgil, Segoe UI Emoji" font-size="20px" fill="#1e1e1e" text-anchor="middle" style="white-space: pre;" direction="ltr" dominant-baseline="text-before-edge">Save</text></g><g transform="translate(86.91151428222656 185.90211486816406) rotate(0 64.99994659423828 12.5)"><text x="0" y="0" font-family="Virgil, Segoe UI Emoji" font-size="20px" fill="#1e1e1e" text-anchor="start" style="white-space: pre;" direction="ltr" dominant-baseline="text-before-edge">Joshua Bloch</text></g><g transform="translate(87.63602447509766 263.8678741455078) rotate(0 137.35989379882812 12.5)"><text x="0" y="0" font-family="Virgil, Segoe UI Emoji" font-size="20px" fill="#1e1e1e" text-anchor="start" style="white-space: pre;" direction="ltr" dominant-baseline="text-before-edge">Effective Java Programming</text></g><g stroke-linecap="round" transform="translate(10 10) rotate(0 307.9234848022461 205.87753295898438)"><path d="M32 0 M32 0 C185.69 -1, 339.03 -1.36, 583.85 0 M32 0 C229.88 1.76, 428.56 1.69, 583.85 0 M583.85 0 C604.86 0.28, 615.68 9.34, 615.85 32 M583.85 0 C605.52 1.65, 615.4 8.93, 615.85 32 M615.85 32 C614.67 115.96, 613.26 201.8, 615.85 379.76 M615.85 32 C615.43 125.47, 614.7 218.93, 615.85 379.76 M615.85 379.76 C615.66 401.65, 603.31 410.73, 583.85 411.76 M615.85 379.76 C615.48 399.92, 606.57 410.97, 583.85 411.76 M583.85 411.76 C418.33 412.21, 252.82 411.41, 32 411.76 M583.85 411.76 C419.62 412.18, 254.48 412.18, 32 411.76 M32 411.76 C12.57 410.24, 0.94 402.17, 0 379.76 M32 411.76 C10.91 413.4, 0.73 402.33, 0 379.76 M0 379.76 C-0.89 246.23, -0.09 112.06, 0 32 M0 379.76 C1.01 292.54, 0.19 206.86, 0 32 M0 32 C1.56 10.02, 11.23 0.6, 32 0 M0 32 C1 11.47, 12.46 -2.29, 32 0" stroke="#1e1e1e" stroke-width="1" fill="none"></path></g><g stroke-linecap="round"><g transform="translate(448.2230574437865 65.68531799316406) rotate(0 15.119678873749706 100.98951640616639)"><path d="M0.56 0.71 C5.71 25.78, 32.19 117.56, 31.99 151.1 C31.79 184.64, 4.5 193.5, -0.65 201.95 M-0.61 0.03 C4.29 25.19, 31.25 118.88, 31.06 152.2 C30.87 185.52, 3.71 191.46, -1.75 199.94" stroke="#1e1e1e" stroke-width="1" fill="none"></path></g><g transform="translate(448.2230574437865 65.68531799316406) rotate(0 15.119678873749706 100.98951640616639)"><path d="M14.42 174.69 C6.11 183.53, 2.72 196.35, -1 199.62 M13.39 175.36 C8.32 181.73, 3.25 189.51, -1.86 200.61" stroke="#1e1e1e" stroke-width="1" fill="none"></path></g><g transform="translate(448.2230574437865 65.68531799316406) rotate(0 15.119678873749706 100.98951640616639)"><path d="M27.17 190.25 C13.79 193.07, 5.41 199.8, -1 199.62 M26.14 190.92 C17.08 192.32, 8.01 195.22, -1.86 200.61" stroke="#1e1e1e" stroke-width="1" fill="none"></path></g></g><mask></mask><g stroke-linecap="round" transform="translate(67.76793670654297 249.9097137451172) rotate(0 174.33502197265625 26.557937622070312)"><path d="M13.28 0 M13.28 0 C107.77 -1.05, 203 -1.64, 335.39 0 M13.28 0 C87.35 -1.6, 161.1 -1.62, 335.39 0 M335.39 0 C346 0.68, 347.53 4.27, 348.67 13.28 M335.39 0 C342.64 0.78, 346.62 6.7, 348.67 13.28 M348.67 13.28 C348.8 19.65, 347.9 29.02, 348.67 39.84 M348.67 13.28 C349.51 20.05, 348.56 28.35, 348.67 39.84 M348.67 39.84 C347.98 46.99, 345.85 53.53, 335.39 53.12 M348.67 39.84 C346.61 50.85, 345.57 52.75, 335.39 53.12 M335.39 53.12 C224.51 54.42, 113.14 54.13, 13.28 53.12 M335.39 53.12 C245.59 52.43, 154.24 52.05, 13.28 53.12 M13.28 53.12 C3.9 54.93, -0.06 48.37, 0 39.84 M13.28 53.12 C3.62 53.87, -1.82 50.87, 0 39.84 M0 39.84 C0.8 35.25, 1.49 26.66, 0 13.28 M0 39.84 C-0.16 30.71, 1 21.45, 0 13.28 M0 13.28 C-1.5 4, 2.83 -1.3, 13.28 0 M0 13.28 C0.87 5.28, 5.82 1.2, 13.28 0" stroke="#1e1e1e" stroke-width="1" fill="none"></path></g><g transform="translate(72.04368591308594 117.85205078125) rotate(0 136.34991455078125 12.5)"><text x="0" y="0" font-family="Virgil, Segoe UI Emoji" font-size="20px" fill="#1e1e1e" text-anchor="start" style="white-space: pre;" direction="ltr" dominant-baseline="text-before-edge">&lt;   Details of Book #1040</text></g><g transform="translate(475.8804244995117 117.55401611328125) rotate(0 62.55994415283203 25)"><text x="0" y="0" font-family="Virgil, Segoe UI Emoji" font-size="20px" fill="#1e1e1e" text-anchor="start" style="white-space: pre;" direction="ltr" dominant-baseline="text-before-edge">hit a service</text><text x="0" y="25" font-family="Virgil, Segoe UI Emoji" font-size="20px" fill="#1e1e1e" text-anchor="start" style="white-space: pre;" direction="ltr" dominant-baseline="text-before-edge">to resolve</text></g></svg>
