<svg version="1.1" xmlns="http://www.w3.org/2000/svg" viewBox="0 0 626.6911315917969 314.8780212402344" width="1253.3822631835938" height="629.7560424804688">
  <!-- svg-source:excalidraw -->

  <defs>
    <style class="style-fonts">
      @font-face {
        font-family: "Virgil";
        src: url("./fonts/Virgil.woff2");
      }
      @font-face {
        font-family: "Cascadia";
      src: url("./fonts/Cascadia.woff2");
      }
    </style>
  </defs>
  <rect x="0" y="0" width="626.6911315917969" height="314.8780212402344" fill="#ffffff"></rect><g stroke-linecap="round" transform="translate(129.58175659179688 121.61349487304688) rotate(0 177 36)"><path d="M4.79 4.16 C4.79 4.16, 4.79 4.16, 4.79 4.16 M4.79 4.16 C4.79 4.16, 4.79 4.16, 4.79 4.16 M3.22 12.07 C4.7 9.06, 9.57 5.88, 11.75 2.26 M3.22 12.07 C6.37 8.21, 9.66 4.4, 11.75 2.26 M1.64 19.98 C8.63 11.78, 13.37 6.88, 18.7 0.36 M1.64 19.98 C5.79 14.6, 10.16 11.11, 18.7 0.36 M2.04 25.62 C10.44 18.14, 20.05 6.26, 23.69 0.72 M2.04 25.62 C10.07 16.81, 19.27 6.27, 23.69 0.72 M2.43 31.27 C10.8 21.81, 19.83 7.65, 29.33 0.32 M2.43 31.27 C11.43 22.37, 18.98 12.04, 29.33 0.32 M2.17 37.66 C13.86 25.01, 22.48 16.26, 34.32 0.68 M2.17 37.66 C10.29 27.86, 19.3 19.21, 34.32 0.68 M2.57 43.31 C14.72 29.24, 28.27 14.33, 39.96 0.29 M2.57 43.31 C13.16 32.07, 22.6 19.43, 39.96 0.29 M2.96 48.95 C18.3 34.02, 32.63 15.6, 44.95 0.65 M2.96 48.95 C10.26 39.37, 20.08 29.44, 44.95 0.65 M2.7 55.35 C12.03 45.52, 23.74 32.95, 50.59 0.25 M2.7 55.35 C18.77 36.4, 36.57 15.32, 50.59 0.25 M1.78 62.5 C21.88 37.9, 43.17 18.18, 55.58 0.61 M1.78 62.5 C22.76 38.26, 41.51 15.41, 55.58 0.61 M4.14 65.88 C26.28 42.1, 48.34 17.01, 61.22 0.22 M4.14 65.88 C18.13 50.78, 32.56 33.78, 61.22 0.22 M6.51 69.26 C19.73 54.73, 29.8 43.02, 66.21 0.58 M6.51 69.26 C21.94 51.33, 36.33 33.87, 66.21 0.58 M9.53 71.88 C28.54 51.78, 42.97 29.62, 71.85 0.18 M9.53 71.88 C24.63 54.66, 40.44 35.83, 71.85 0.18 M14.51 72.24 C29.45 55.09, 43.22 39.93, 76.84 0.54 M14.51 72.24 C28.39 56.13, 42.79 39.78, 76.84 0.54 M19.5 72.6 C37.28 48.28, 61.23 25.26, 81.83 0.9 M19.5 72.6 C39.02 49.88, 59.26 27.66, 81.83 0.9 M25.14 72.21 C39.9 50.3, 59.8 33.18, 87.47 0.51 M25.14 72.21 C38.85 56.1, 51.64 41.28, 87.47 0.51 M30.13 72.57 C54.3 43.42, 79.09 18.1, 92.46 0.87 M30.13 72.57 C55.11 44.77, 79.81 16.94, 92.46 0.87 M35.77 72.17 C59.28 47.16, 79.92 20.87, 98.1 0.48 M35.77 72.17 C55.02 52.02, 71.03 32.33, 98.1 0.48 M40.76 72.53 C60.51 49.4, 84.98 25.45, 103.09 0.84 M40.76 72.53 C60.41 51.4, 77.62 29.93, 103.09 0.84 M46.4 72.14 C60.03 56.57, 72.31 43.77, 108.73 0.44 M46.4 72.14 C61.6 55.27, 75.49 40.76, 108.73 0.44 M51.39 72.5 C68.7 52.19, 87.02 32.48, 113.72 0.8 M51.39 72.5 C65.43 54.12, 82.9 35.42, 113.72 0.8 M57.03 72.1 C69.94 54.47, 88.03 37.92, 119.36 0.41 M57.03 72.1 C78.38 48.21, 100.55 22.49, 119.36 0.41 M62.02 72.46 C82.09 45.11, 107.14 20.13, 124.35 0.77 M62.02 72.46 C79.9 50.59, 99.34 30.88, 124.35 0.77 M67.66 72.07 C83.76 55.72, 96.86 40.92, 129.99 0.37 M67.66 72.07 C85.21 51.24, 102.92 30.68, 129.99 0.37 M72.65 72.43 C91.99 50.78, 109.78 31.76, 134.98 0.73 M72.65 72.43 C93.57 50.28, 112.98 26.85, 134.98 0.73 M78.29 72.03 C94.35 53.15, 108.73 35.25, 140.62 0.34 M78.29 72.03 C91.06 57.23, 104.37 42.08, 140.62 0.34 M83.28 72.4 C96.75 55.98, 114.76 34.65, 145.61 0.7 M83.28 72.4 C95.91 55.86, 110.3 42.12, 145.61 0.7 M88.92 72 C108.38 49.99, 128.53 29.41, 151.25 0.3 M88.92 72 C102.32 56.09, 116.61 40.63, 151.25 0.3 M93.91 72.36 C107.89 57.2, 121.91 36.55, 156.24 0.66 M93.91 72.36 C115.53 47.55, 134.63 23.29, 156.24 0.66 M98.9 72.72 C120.13 47.4, 142.09 25.15, 161.88 0.27 M98.9 72.72 C120.13 47.7, 140.8 24.16, 161.88 0.27 M104.54 72.33 C118.77 54.3, 136.28 37.01, 166.87 0.63 M104.54 72.33 C118.58 55.63, 133.72 37.38, 166.87 0.63 M109.53 72.69 C132.37 45.31, 156.48 21.26, 171.85 0.99 M109.53 72.69 C131.12 50.09, 150.8 26.13, 171.85 0.99 M115.17 72.29 C137.48 47.97, 157.03 20.85, 177.5 0.59 M115.17 72.29 C135.9 49.73, 156.6 26.38, 177.5 0.59 M120.16 72.65 C141.85 45.83, 167.13 16.83, 182.48 0.95 M120.16 72.65 C134.75 54.81, 150.05 37.49, 182.48 0.95 M125.8 72.26 C146.09 47.11, 172.19 19.86, 188.13 0.56 M125.8 72.26 C150.29 43.99, 173.66 16.8, 188.13 0.56 M130.79 72.62 C146.86 54.96, 163.35 35.43, 193.11 0.92 M130.79 72.62 C150.18 48.88, 171.85 25.47, 193.11 0.92 M136.43 72.22 C157.29 44.39, 180.22 19.71, 198.76 0.53 M136.43 72.22 C157.11 49.23, 176.58 28.8, 198.76 0.53 M141.42 72.58 C157.5 57.93, 168.47 38.54, 203.74 0.89 M141.42 72.58 C160.46 51.47, 179.11 30.06, 203.74 0.89 M147.06 72.19 C164.58 51.68, 183.33 32.03, 209.39 0.49 M147.06 72.19 C168.3 47.08, 191.3 21.67, 209.39 0.49 M152.05 72.55 C164.86 56.71, 179.53 42.31, 214.37 0.85 M152.05 72.55 C165.28 55.86, 180.91 38.8, 214.37 0.85 M157.69 72.15 C170.96 56.34, 185.01 42.03, 220.02 0.46 M157.69 72.15 C170.95 57.38, 184.27 40.91, 220.02 0.46 M162.68 72.51 C178.33 50.83, 197.42 29.71, 225 0.82 M162.68 72.51 C183.09 51.22, 202.03 28.96, 225 0.82 M168.32 72.12 C188.44 49.39, 209.15 27, 230.65 0.42 M168.32 72.12 C182.93 55.95, 198.87 37.93, 230.65 0.42 M173.31 72.48 C188 58.07, 200.42 43.9, 235.63 0.78 M173.31 72.48 C189.41 53.19, 205.93 35.09, 235.63 0.78 M178.95 72.08 C198.51 48.34, 223.56 23.87, 241.28 0.39 M178.95 72.08 C201.12 45.97, 225.33 19.22, 241.28 0.39 M183.94 72.44 C200.27 51.83, 217.65 32.27, 246.26 0.75 M183.94 72.44 C203.77 48.37, 223.99 25.86, 246.26 0.75 M188.93 72.8 C209.14 52.52, 226.53 33.23, 251.91 0.35 M188.93 72.8 C202.96 57.86, 218.37 39.97, 251.91 0.35 M194.57 72.41 C215.56 48.6, 236.43 25.54, 256.89 0.71 M194.57 72.41 C212.19 49.82, 231.67 27.21, 256.89 0.71 M199.56 72.77 C221.52 48.64, 240.65 22, 261.88 1.07 M199.56 72.77 C223.77 44.97, 249.13 16.26, 261.88 1.07 M205.2 72.38 C226.8 47.93, 246.22 26.79, 267.52 0.68 M205.2 72.38 C221.92 50.67, 241.11 30.64, 267.52 0.68 M210.19 72.74 C235.26 44.64, 254.5 18.2, 272.51 1.04 M210.19 72.74 C231.02 47.9, 251.72 23.43, 272.51 1.04 M215.83 72.34 C234.32 52.19, 253.43 31.15, 278.15 0.64 M215.83 72.34 C235.08 49.05, 253.83 26.79, 278.15 0.64 M220.82 72.7 C244.18 42.87, 269.94 15.14, 283.14 1 M220.82 72.7 C242.05 49.28, 262.11 25.17, 283.14 1 M226.46 72.31 C239.92 54.14, 255.11 35.76, 288.78 0.61 M226.46 72.31 C248.08 47.37, 268.2 24.74, 288.78 0.61 M231.45 72.67 C248.57 52.63, 270.37 31.69, 293.77 0.97 M231.45 72.67 C248.21 52.96, 264.31 33.85, 293.77 0.97 M237.09 72.27 C255.39 53.61, 271.88 30.09, 299.41 0.57 M237.09 72.27 C254.21 54.28, 269.93 33.97, 299.41 0.57 M242.08 72.63 C266.64 43.17, 289.44 18.41, 304.4 0.93 M242.08 72.63 C259.58 51.91, 276.24 31.65, 304.4 0.93 M247.72 72.24 C261.52 55.43, 278.02 38.53, 310.05 0.54 M247.72 72.24 C265.41 51.27, 284.87 30.25, 310.05 0.54 M252.71 72.6 C272.23 46.1, 298.37 23.65, 315.03 0.9 M252.71 72.6 C272.58 48.17, 292.47 25.08, 315.03 0.9 M258.35 72.2 C277.52 51.37, 292.31 31.38, 320.68 0.51 M258.35 72.2 C284.02 44.42, 307.33 16.48, 320.68 0.51 M263.34 72.56 C285.4 43.98, 310.9 18.49, 325.66 0.87 M263.34 72.56 C287.58 45.73, 312.26 17.64, 325.66 0.87 M268.98 72.17 C285.09 54.24, 300.65 33.87, 331.31 0.47 M268.98 72.17 C283.35 56.42, 296.64 40.6, 331.31 0.47 M273.97 72.53 C298.46 46.03, 319.93 19.43, 336.29 0.83 M273.97 72.53 C291.61 52.63, 307.81 32.19, 336.29 0.83 M278.95 72.89 C304.8 43.53, 325.92 16.86, 341.28 1.19 M278.95 72.89 C304.99 44.02, 329.22 15.11, 341.28 1.19 M284.6 72.49 C305.75 46.21, 327.02 20.96, 344.95 3.06 M284.6 72.49 C300.92 54.52, 315.74 38.06, 344.95 3.06 M289.58 72.85 C312.19 43.85, 336.85 18.07, 348.63 4.93 M289.58 72.85 C303.46 56.59, 317.44 42.2, 348.63 4.93 M295.23 72.46 C315.49 51.92, 332.07 30.19, 352.3 6.8 M295.23 72.46 C315.89 47.1, 337.12 23.91, 352.3 6.8 M300.21 72.82 C316.17 55.45, 332.21 34.82, 354.01 10.93 M300.21 72.82 C311.4 59.57, 322.38 48.69, 354.01 10.93 M305.86 72.43 C321.96 55.73, 338.55 37.96, 353.75 17.33 M305.86 72.43 C321.11 54.01, 337.03 34.06, 353.75 17.33 M310.84 72.79 C321.59 61.23, 333.51 47.55, 354.14 22.97 M310.84 72.79 C322.62 59.01, 336.75 44.51, 354.14 22.97 M316.49 72.39 C330.4 57.14, 346.16 40.31, 354.54 28.62 M316.49 72.39 C327.68 60.02, 337.84 48.68, 354.54 28.62 M321.47 72.75 C328.75 64.38, 335.05 57.54, 354.28 35.02 M321.47 72.75 C328.01 65.46, 334.93 56.75, 354.28 35.02 M327.12 72.36 C336.42 59.89, 345.99 49.79, 354.67 40.66 M327.12 72.36 C336.57 62.32, 345.53 51.38, 354.67 40.66 M332.1 72.72 C340.97 65.52, 346.09 58.06, 354.41 47.06 M332.1 72.72 C337.26 67.24, 341.57 61.41, 354.41 47.06 M337.09 73.08 C343.2 64.47, 348.36 58.67, 354.8 52.7 M337.09 73.08 C343.28 66.49, 347.12 61.61, 354.8 52.7 M344.05 71.17 C347.76 68.76, 349.66 64.89, 354.54 59.1 M344.05 71.17 C346.11 67.72, 348.63 66.01, 354.54 59.1" stroke="#ffc9c9" stroke-width="0.5" fill="none"></path><path d="M18 0 M18 0 C110.66 2.03, 203.77 1.44, 336 0 M18 0 C142.17 -1.52, 266.53 -1.49, 336 0 M336 0 C346.73 -0.86, 354.72 4.65, 354 18 M336 0 C349.85 -1.54, 353.89 4.59, 354 18 M354 18 C353.88 25.21, 353.39 33.34, 354 54 M354 18 C355.29 30.78, 354.73 44.6, 354 54 M354 54 C354.77 64.45, 349.09 71.61, 336 72 M354 54 C355.36 64.08, 347.7 71.29, 336 72 M336 72 C210.82 69.99, 84.38 68.82, 18 72 M336 72 C212.87 73.9, 91.3 74.34, 18 72 M18 72 C7.42 71.09, -0.73 64.42, 0 54 M18 72 C4.06 72.34, -0.5 64.22, 0 54 M0 54 C1.02 42.72, 0.55 28.96, 0 18 M0 54 C0.65 43.16, 0.51 32.72, 0 18 M0 18 C1.17 5.73, 4.74 1.58, 18 0 M0 18 C-1.27 7.65, 4.91 2.22, 18 0" stroke="#1e1e1e" stroke-width="1" fill="none"></path></g><g transform="translate(212.28184509277344 145.11349487304688) rotate(0 94.29991149902344 12.5)"><text x="94.29991149902344" y="0" font-family="Virgil, Segoe UI Emoji" font-size="20px" fill="#1e1e1e" text-anchor="middle" style="white-space: pre;" direction="ltr" dominant-baseline="text-before-edge">BookOverviewDialog</text></g><g stroke-linecap="round" transform="translate(327.6911315917969 234.87802124023438) rotate(0 144.5 35)"><path d="M4.66 4.05 C4.66 4.05, 4.66 4.05, 4.66 4.05 M4.66 4.05 C4.66 4.05, 4.66 4.05, 4.66 4.05 M3.08 11.96 C5.76 7.87, 8.44 4.38, 11.61 2.15 M3.08 11.96 C4.92 10.22, 6.78 7.7, 11.61 2.15 M2.17 19.11 C5.67 16.2, 12.66 9.95, 17.91 1 M2.17 19.11 C7.09 13.09, 12.14 8.01, 17.91 1 M1.91 25.51 C7.38 16.73, 15.73 11.01, 23.56 0.6 M1.91 25.51 C7.81 19.84, 12.68 13.88, 23.56 0.6 M2.3 31.15 C11.7 21.32, 20.34 13.16, 28.54 0.96 M2.3 31.15 C10.94 23, 18.59 13.53, 28.54 0.96 M2.69 36.79 C11.63 25.51, 20.85 15.97, 34.19 0.57 M2.69 36.79 C14.68 22.35, 26.79 9.81, 34.19 0.57 M2.43 43.19 C10.81 32.62, 21.16 22.19, 39.17 0.93 M2.43 43.19 C10.07 32.2, 18.53 23.03, 39.17 0.93 M2.83 48.83 C14.2 37.73, 21.6 24.29, 44.82 0.53 M2.83 48.83 C16.22 34.29, 28.44 18.84, 44.82 0.53 M3.22 54.48 C13.89 41.74, 21.55 32, 49.8 0.89 M3.22 54.48 C15.61 39.73, 29.82 24.12, 49.8 0.89 M2.31 61.63 C20.91 42.32, 40.73 17.93, 55.45 0.5 M2.31 61.63 C20.4 40.15, 40.25 17.31, 55.45 0.5 M5.32 64.25 C18.97 48.77, 32.91 32.24, 60.43 0.86 M5.32 64.25 C27.23 39.94, 48.67 14.73, 60.43 0.86 M7.69 67.63 C22.38 49.58, 36.26 34.4, 66.08 0.46 M7.69 67.63 C30.24 43.44, 52.35 17.23, 66.08 0.46 M11.36 69.5 C29.43 47.4, 50.32 24.97, 71.06 0.82 M11.36 69.5 C32.14 47.6, 51.44 23.01, 71.06 0.82 M15.04 71.37 C34.45 52.36, 52.13 30.77, 76.71 0.43 M15.04 71.37 C33.35 51.8, 48.21 33.37, 76.71 0.43 M20.68 70.98 C44.04 43.58, 69.07 15.23, 81.69 0.79 M20.68 70.98 C34.41 55.46, 47.53 39.79, 81.69 0.79 M25.67 71.34 C42.05 54.17, 55.02 34.48, 87.34 0.39 M25.67 71.34 C38.45 54.54, 53.45 40.77, 87.34 0.39 M31.31 70.94 C50.96 48.27, 72.65 23.43, 92.32 0.75 M31.31 70.94 C53.61 46.65, 74.37 21.66, 92.32 0.75 M36.3 71.3 C50.42 54.97, 65.03 36.83, 97.97 0.36 M36.3 71.3 C54.55 49.74, 71.34 28.71, 97.97 0.36 M41.94 70.91 C57.33 51.21, 74.26 31.38, 102.95 0.72 M41.94 70.91 C54.01 56.4, 66.41 42.63, 102.95 0.72 M46.93 71.27 C69.58 46.02, 94.29 17.69, 107.94 1.08 M46.93 71.27 C61.59 53.8, 75.84 38.23, 107.94 1.08 M51.91 71.63 C66.04 56.29, 76.82 42.44, 113.58 0.69 M51.91 71.63 C66.95 54.94, 81.54 38.42, 113.58 0.69 M57.56 71.23 C77.68 50.17, 95.44 27.89, 118.57 1.05 M57.56 71.23 C72.69 52.81, 89 34.64, 118.57 1.05 M62.54 71.59 C78.18 55.74, 91.36 37.68, 124.21 0.65 M62.54 71.59 C80.77 52.17, 97.3 31.54, 124.21 0.65 M68.19 71.2 C86.4 54.56, 103.02 33.03, 129.2 1.01 M68.19 71.2 C86.09 51.46, 102.75 32.16, 129.2 1.01 M73.17 71.56 C92.69 49.87, 109.39 28.78, 134.84 0.62 M73.17 71.56 C94.97 46.07, 116.65 22.6, 134.84 0.62 M78.82 71.16 C96.54 50.7, 112.99 32.89, 139.83 0.98 M78.82 71.16 C93.46 54.51, 110.39 36.36, 139.83 0.98 M83.8 71.52 C95.82 56.2, 111.64 39.94, 145.47 0.58 M83.8 71.52 C99.06 53.52, 113.76 36.02, 145.47 0.58 M89.45 71.13 C110.34 48.32, 127 25.43, 150.46 0.94 M89.45 71.13 C105.79 54.49, 120.3 36.12, 150.46 0.94 M94.43 71.49 C110.22 53.33, 130.34 32.95, 156.1 0.55 M94.43 71.49 C114.28 48.95, 135.17 25.74, 156.1 0.55 M100.08 71.1 C122.01 47.34, 142.97 22.79, 161.09 0.91 M100.08 71.1 C112.72 55.41, 125.1 41.34, 161.09 0.91 M105.06 71.46 C120.96 51.24, 137.57 36.46, 166.73 0.51 M105.06 71.46 C127.29 46.95, 147.5 20.99, 166.73 0.51 M110.71 71.06 C127.2 52.62, 148.51 30.02, 171.72 0.87 M110.71 71.06 C130.38 48.33, 149.86 26.44, 171.72 0.87 M115.69 71.42 C139.81 45.26, 163.22 16.98, 177.36 0.48 M115.69 71.42 C130.36 54.01, 144.97 37.25, 177.36 0.48 M121.34 71.03 C137.52 54.78, 151.72 35.87, 182.35 0.84 M121.34 71.03 C140.18 50.97, 158.08 30.14, 182.35 0.84 M126.32 71.39 C149.22 44.59, 173.29 18.35, 187.99 0.44 M126.32 71.39 C144.89 50.34, 161.23 29.9, 187.99 0.44 M131.97 70.99 C149.99 50.27, 166.38 30.88, 192.98 0.8 M131.97 70.99 C150.02 49.63, 167.93 29.19, 192.98 0.8 M136.95 71.35 C148.47 58.12, 161.19 43.01, 197.97 1.16 M136.95 71.35 C161.45 43.66, 185.83 17.05, 197.97 1.16 M141.94 71.71 C157.15 53.03, 170 36.92, 203.61 0.77 M141.94 71.71 C165.06 45.77, 186.63 20.78, 203.61 0.77 M147.58 71.32 C166.65 49.28, 189.66 24.04, 208.6 1.13 M147.58 71.32 C171 44.43, 195.15 15.25, 208.6 1.13 M152.57 71.68 C173.06 47.41, 189.94 26.66, 214.24 0.74 M152.57 71.68 C166.09 57.05, 179.6 40.79, 214.24 0.74 M158.21 71.28 C175.95 49.1, 193.11 30.14, 219.23 1.1 M158.21 71.28 C179.61 47.09, 201.91 22.18, 219.23 1.1 M163.2 71.64 C182.18 49.1, 204.09 23.77, 224.87 0.7 M163.2 71.64 C180.67 53.04, 198.43 33.27, 224.87 0.7 M168.84 71.25 C183.4 54.77, 200.03 34.7, 229.86 1.06 M168.84 71.25 C185.2 50.67, 202.56 32.46, 229.86 1.06 M173.83 71.61 C186.65 56.02, 200.48 40.22, 235.5 0.67 M173.83 71.61 C187.8 56.16, 200.42 41.53, 235.5 0.67 M179.47 71.21 C199.41 50.09, 216.52 24.74, 240.49 1.03 M179.47 71.21 C201.98 46.23, 223.69 21.22, 240.49 1.03 M184.46 71.57 C205.55 49.17, 224.97 22.65, 246.13 0.63 M184.46 71.57 C207.79 44.87, 231.03 17.83, 246.13 0.63 M190.1 71.18 C202.62 59.48, 214.85 44.93, 251.12 0.99 M190.1 71.18 C212.85 46.53, 235.85 19.93, 251.12 0.99 M195.09 71.54 C215.51 47.88, 240.25 22.58, 256.76 0.6 M195.09 71.54 C208.7 56.25, 223.59 39.43, 256.76 0.6 M200.73 71.15 C219.65 47.41, 238.26 26.8, 261.75 0.96 M200.73 71.15 C216.98 52.36, 233.71 34.53, 261.75 0.96 M205.72 71.51 C228.38 47.78, 249.17 19.49, 267.39 0.56 M205.72 71.51 C221.5 54.72, 235.84 37.46, 267.39 0.56 M211.37 71.11 C231.92 43.91, 254.39 20.58, 272.38 0.92 M211.37 71.11 C233.01 45.25, 255.53 18.23, 272.38 0.92 M216.35 71.47 C241.18 42.1, 263.75 18.7, 277.37 1.28 M216.35 71.47 C233.03 54.1, 247.71 36.87, 277.37 1.28 M221.34 71.83 C238.02 53.85, 258.24 30.7, 281.04 3.15 M221.34 71.83 C244.53 44.72, 269 17.42, 281.04 3.15 M226.98 71.44 C241.16 54.92, 258.16 38.63, 284.72 5.02 M226.98 71.44 C244.86 49.34, 263.44 29.6, 284.72 5.02 M231.97 71.8 C249.65 52.03, 268.12 30.85, 287.08 8.4 M231.97 71.8 C244.5 57.13, 255.84 42.97, 287.08 8.4 M237.61 71.4 C258.07 47.6, 277.24 25.64, 289.44 11.78 M237.61 71.4 C256.87 49.01, 277.34 26.61, 289.44 11.78 M242.6 71.76 C260 50.81, 278.16 32.96, 289.84 17.42 M242.6 71.76 C258.8 54.13, 272.73 38.05, 289.84 17.42 M248.24 71.37 C259.15 57.08, 274.19 41.9, 290.23 23.07 M248.24 71.37 C258.11 59.36, 269.19 46.91, 290.23 23.07 M253.23 71.73 C268.83 56.49, 280.21 38.9, 289.97 29.46 M253.23 71.73 C264.6 58.78, 276.4 45.39, 289.97 29.46 M258.87 71.33 C268.13 58.4, 278.72 45.33, 290.36 35.11 M258.87 71.33 C267.63 60.98, 275.99 50.98, 290.36 35.11 M263.86 71.69 C271.4 63.01, 274.42 57.66, 290.1 41.5 M263.86 71.69 C271.04 63.4, 276.51 56.44, 290.1 41.5 M269.5 71.3 C275.67 67.6, 277.9 60.56, 290.5 47.15 M269.5 71.3 C274.14 67.24, 278.98 61.18, 290.5 47.15 M273.83 72.41 C276.8 67.86, 282.01 64.47, 290.23 53.55 M273.83 72.41 C277.93 66.42, 283.95 59.97, 290.23 53.55" stroke="#b2f2bb" stroke-width="0.5" fill="none"></path><path d="M17.5 0 M17.5 0 C67.82 -0.88, 119.11 -1.65, 271.5 0 M17.5 0 C100.69 0.74, 184.86 0.28, 271.5 0 M271.5 0 C283.68 1.15, 290.89 4.76, 289 17.5 M271.5 0 C282.86 2.03, 288.57 4.99, 289 17.5 M289 17.5 C289.1 29.83, 289.2 45.1, 289 52.5 M289 17.5 C288.18 24.8, 289.69 33.97, 289 52.5 M289 52.5 C287.12 65.82, 284.25 71.23, 271.5 70 M289 52.5 C287.84 66.13, 281.35 72.29, 271.5 70 M271.5 70 C186.57 69.9, 99.64 70.49, 17.5 70 M271.5 70 C205.72 68.73, 138.48 68.29, 17.5 70 M17.5 70 C6.06 69.19, 0.26 63.78, 0 52.5 M17.5 70 C7.22 70.81, -1.44 64.82, 0 52.5 M0 52.5 C0.37 41.05, -1.17 32.77, 0 17.5 M0 52.5 C0.52 44.11, 0.7 36.63, 0 17.5 M0 17.5 C1.99 7.2, 5.72 0.16, 17.5 0 M0 17.5 C1.78 5.77, 5.71 -0.09, 17.5 0" stroke="#2f9e44" stroke-width="1" fill="none"></path></g><g transform="translate(416.4911804199219 257.3780212402344) rotate(0 55.699951171875 12.5)"><text x="55.699951171875" y="0" font-family="Virgil, Segoe UI Emoji" font-size="20px" fill="#2f9e44" text-anchor="middle" style="white-space: pre;" direction="ltr" dominant-baseline="text-before-edge">BookSearch</text></g><g stroke-linecap="round" transform="translate(10 231.80593872070312) rotate(0 138.5 35)"><path d="M4.66 4.05 C4.66 4.05, 4.66 4.05, 4.66 4.05 M4.66 4.05 C4.66 4.05, 4.66 4.05, 4.66 4.05 M3.08 11.96 C6.27 9.33, 8.09 4.58, 11.61 2.15 M3.08 11.96 C5.67 9.65, 8.5 6.18, 11.61 2.15 M2.17 19.11 C5.79 15.55, 12.53 10.04, 17.91 1 M2.17 19.11 C7.34 13.09, 11.6 8.69, 17.91 1 M1.91 25.51 C7.95 18.19, 12.93 15.85, 23.56 0.6 M1.91 25.51 C9.07 17.31, 18.06 6.86, 23.56 0.6 M2.3 31.15 C8.7 24.4, 15.44 16.45, 28.54 0.96 M2.3 31.15 C7.43 24.63, 13.38 17.7, 28.54 0.96 M2.69 36.79 C13.32 24.02, 23.03 13.72, 34.19 0.57 M2.69 36.79 C13.2 23.46, 25.2 10.53, 34.19 0.57 M2.43 43.19 C12.8 31.7, 25.19 19.56, 39.17 0.93 M2.43 43.19 C16.76 27.58, 29.45 12.01, 39.17 0.93 M2.83 48.83 C14.83 36.18, 23.69 21.93, 44.82 0.53 M2.83 48.83 C13.76 35.75, 23.98 24.87, 44.82 0.53 M3.22 54.48 C20.23 35.49, 34.71 18.21, 49.8 0.89 M3.22 54.48 C14.83 40.3, 27.75 26.26, 49.8 0.89 M2.31 61.63 C19.54 44.13, 35.43 22.94, 55.45 0.5 M2.31 61.63 C19.06 41.34, 34.83 23.51, 55.45 0.5 M5.32 64.25 C16.62 50.55, 29.54 36.21, 60.43 0.86 M5.32 64.25 C27.25 41.22, 48.73 15.35, 60.43 0.86 M7.69 67.63 C18.34 55.36, 33.15 41.56, 66.08 0.46 M7.69 67.63 C26.36 48.15, 42.7 26.79, 66.08 0.46 M11.36 69.5 C27.55 53.45, 41.09 37.62, 71.06 0.82 M11.36 69.5 C33.56 42.45, 57.72 16.38, 71.06 0.82 M15.04 71.37 C35.26 50.07, 57.16 25.97, 76.71 0.43 M15.04 71.37 C30.87 54.83, 45.32 38.82, 76.71 0.43 M20.68 70.98 C41.22 47.17, 63.3 23.18, 81.69 0.79 M20.68 70.98 C41.1 47.71, 60.66 24.53, 81.69 0.79 M25.67 71.34 C39.25 57.81, 52.66 41.2, 87.34 0.39 M25.67 71.34 C40.12 55.68, 54.45 39.02, 87.34 0.39 M31.31 70.94 C46.06 53.58, 58.69 39.37, 92.32 0.75 M31.31 70.94 C43.35 55.87, 57.47 40.23, 92.32 0.75 M36.3 71.3 C57.91 45.81, 81.51 18.94, 97.97 0.36 M36.3 71.3 C52.95 52.05, 67.93 34, 97.97 0.36 M41.94 70.91 C63.5 44.77, 85.92 19.75, 102.95 0.72 M41.94 70.91 C57.07 54.1, 72.99 34.92, 102.95 0.72 M46.93 71.27 C60.74 54.43, 77.22 39.9, 107.94 1.08 M46.93 71.27 C70.82 43.99, 94.77 15.96, 107.94 1.08 M51.91 71.63 C72.33 45.67, 94.33 21.98, 113.58 0.69 M51.91 71.63 C65.96 56.95, 79.9 40.42, 113.58 0.69 M57.56 71.23 C78.15 48.34, 96.6 25.68, 118.57 1.05 M57.56 71.23 C78.17 46.25, 100.93 20.72, 118.57 1.05 M62.54 71.59 C77.97 52.65, 93.88 32.89, 124.21 0.65 M62.54 71.59 C78.35 53.56, 93.19 36.13, 124.21 0.65 M68.19 71.2 C90.9 42.69, 113.69 15.33, 129.2 1.01 M68.19 71.2 C91.84 43.69, 116.39 16.27, 129.2 1.01 M73.17 71.56 C86.72 55.57, 102.68 40.81, 134.84 0.62 M73.17 71.56 C90.13 50.58, 109.23 29.05, 134.84 0.62 M78.82 71.16 C96.24 53.31, 111.51 32.31, 139.83 0.98 M78.82 71.16 C101.9 44.79, 125.9 17.61, 139.83 0.98 M83.8 71.52 C94.97 54.56, 110.77 39.68, 145.47 0.58 M83.8 71.52 C99.5 52.93, 116.21 33.2, 145.47 0.58 M89.45 71.13 C110.58 49.68, 129.16 27.57, 150.46 0.94 M89.45 71.13 C107.5 51.46, 125.06 30.7, 150.46 0.94 M94.43 71.49 C116.24 49, 135.77 23.59, 156.1 0.55 M94.43 71.49 C108.03 55.43, 123.67 38.87, 156.1 0.55 M100.08 71.1 C114.96 54.8, 130.02 35.69, 161.09 0.91 M100.08 71.1 C124.5 44.26, 148.14 17.61, 161.09 0.91 M105.06 71.46 C126.57 48.71, 147.57 22.35, 166.73 0.51 M105.06 71.46 C122.84 50.53, 140.32 30.53, 166.73 0.51 M110.71 71.06 C125.59 56.58, 137.36 40.05, 171.72 0.87 M110.71 71.06 C135.6 42.81, 159.41 15.12, 171.72 0.87 M115.69 71.42 C127.17 57.51, 144.01 38.49, 177.36 0.48 M115.69 71.42 C131.71 53.39, 146.9 36.11, 177.36 0.48 M121.34 71.03 C135.9 53.12, 151.93 38.17, 182.35 0.84 M121.34 71.03 C140.8 47.81, 162.42 24.54, 182.35 0.84 M126.32 71.39 C143.31 51.11, 161.74 33.12, 187.99 0.44 M126.32 71.39 C148.39 46.45, 170.38 20.97, 187.99 0.44 M131.31 71.75 C144.23 54.43, 159.62 37.36, 192.98 0.8 M131.31 71.75 C145.9 54.29, 162.45 34.86, 192.98 0.8 M136.95 71.35 C152.83 52.48, 171.22 30.34, 197.97 1.16 M136.95 71.35 C149.34 57.7, 163.01 41.31, 197.97 1.16 M141.94 71.71 C166.47 44.93, 188.23 19.62, 203.61 0.77 M141.94 71.71 C166.13 46.15, 187.53 19.96, 203.61 0.77 M147.58 71.32 C164.99 51.51, 181.7 35.16, 208.6 1.13 M147.58 71.32 C171.67 44.7, 195.26 18.18, 208.6 1.13 M152.57 71.68 C169.71 52.11, 184.51 36.02, 214.24 0.74 M152.57 71.68 C171.01 50.84, 189.4 30.6, 214.24 0.74 M158.21 71.28 C179.61 50.08, 198.77 26.27, 219.23 1.1 M158.21 71.28 C172.16 53.43, 186.97 38.68, 219.23 1.1 M163.2 71.64 C181.42 50.84, 201.04 32.38, 224.87 0.7 M163.2 71.64 C185.5 46.87, 205.84 21.72, 224.87 0.7 M168.84 71.25 C185.12 53.31, 198.78 34.38, 229.86 1.06 M168.84 71.25 C186.54 50.19, 204.05 30.29, 229.86 1.06 M173.83 71.61 C198.97 45.35, 219.9 16.31, 235.5 0.67 M173.83 71.61 C195.27 47.14, 216.16 22.73, 235.5 0.67 M179.47 71.21 C197.96 52, 212.88 32.8, 240.49 1.03 M179.47 71.21 C198.22 51.08, 214.92 30.95, 240.49 1.03 M184.46 71.57 C200.8 56.27, 212.18 37.97, 246.13 0.63 M184.46 71.57 C206.68 47.29, 228.49 22.99, 246.13 0.63 M190.1 71.18 C211.94 45.6, 231.59 20.48, 251.12 0.99 M190.1 71.18 C209.45 51.38, 226.94 30.27, 251.12 0.99 M195.09 71.54 C218.68 47.24, 239.87 21.8, 256.76 0.6 M195.09 71.54 C214.04 47.28, 234.43 23.85, 256.76 0.6 M200.73 71.15 C213.68 56.18, 228.42 38.01, 261.75 0.96 M200.73 71.15 C223.81 44, 248.43 15.99, 261.75 0.96 M205.72 71.51 C227.65 45.48, 254.69 17.13, 266.08 2.07 M205.72 71.51 C223.85 50.61, 243.16 28.13, 266.08 2.07 M211.37 71.11 C225.18 56.35, 238.58 41.89, 270.41 3.19 M211.37 71.11 C224.08 54.52, 237.76 39.7, 270.41 3.19 M216.35 71.47 C238.66 47.6, 257.56 21.86, 273.43 5.81 M216.35 71.47 C239.25 45.93, 262.11 19.5, 273.43 5.81 M221.34 71.83 C234.85 58.31, 245.94 40.98, 275.79 9.19 M221.34 71.83 C233.16 57.96, 246.2 44.36, 275.79 9.19 M226.98 71.44 C242.13 54.01, 254.07 40.6, 278.81 11.81 M226.98 71.44 C247.62 48.39, 267.12 24.78, 278.81 11.81 M231.97 71.8 C242.82 56.01, 255.86 39.53, 278.55 18.21 M231.97 71.8 C250.61 51.26, 268.58 30.28, 278.55 18.21 M237.61 71.4 C249.7 58.42, 260.56 44.68, 278.94 23.86 M237.61 71.4 C253.54 54.7, 268.18 37.02, 278.94 23.86 M242.6 71.76 C250.14 61.16, 259.45 51.53, 278.68 30.25 M242.6 71.76 C253.81 59.81, 264.69 47.67, 278.68 30.25 M248.24 71.37 C259.15 60.47, 270 46.51, 279.08 35.9 M248.24 71.37 C256.01 62.88, 262.61 53.96, 279.08 35.9 M253.23 71.73 C258.52 63.79, 266.94 52.89, 278.82 42.29 M253.23 71.73 C260.07 63.37, 269.12 52.62, 278.82 42.29 M259.53 70.58 C265.66 60.31, 274.48 53.35, 279.21 47.94 M259.53 70.58 C265.14 64.35, 269.52 57.24, 279.21 47.94 M265.83 69.43 C267.69 67.29, 271.5 62.13, 276.98 56.6 M265.83 69.43 C269.41 64.74, 274.45 60.28, 276.98 56.6" stroke="#b2f2bb" stroke-width="0.5" fill="none"></path><path d="M17.5 0 M17.5 0 C78.01 -1.37, 135.75 -2.84, 259.5 0 M17.5 0 C101.38 0.26, 185.87 -0.95, 259.5 0 M259.5 0 C272.35 -0.05, 278.24 6.31, 277 17.5 M259.5 0 C273.39 -0.31, 276.87 8, 277 17.5 M277 17.5 C278.21 29.96, 275.7 40.32, 277 52.5 M277 17.5 C276.81 31.13, 276.62 43.56, 277 52.5 M277 52.5 C275.58 65.08, 270.17 71.91, 259.5 70 M277 52.5 C276.1 62.62, 270.11 68.16, 259.5 70 M259.5 70 C187.69 69.6, 113.06 67.63, 17.5 70 M259.5 70 C189.74 69.65, 119.96 69.26, 17.5 70 M17.5 70 C5.48 68.72, -0.88 64.8, 0 52.5 M17.5 70 C7.91 68.28, -1.26 64.77, 0 52.5 M0 52.5 C-0.41 43.74, 1.37 33, 0 17.5 M0 52.5 C0.43 44.44, -0.19 36.79, 0 17.5 M0 17.5 C0.26 4.95, 4.93 0.61, 17.5 0 M0 17.5 C-2.12 3.63, 5.99 -1.63, 17.5 0" stroke="#2f9e44" stroke-width="1" fill="none"></path></g><g transform="translate(106.0200424194336 254.30593872070312) rotate(0 42.479957580566406 12.5)"><text x="42.479957580566406" y="0" font-family="Virgil, Segoe UI Emoji" font-size="20px" fill="#2f9e44" text-anchor="middle" style="white-space: pre;" direction="ltr" dominant-baseline="text-before-edge">BookList</text></g><g stroke-linecap="round" transform="translate(124.23846435546875 10) rotate(0 177 36)"><path d="M4.79 4.16 C4.79 4.16, 4.79 4.16, 4.79 4.16 M4.79 4.16 C4.79 4.16, 4.79 4.16, 4.79 4.16 M3.22 12.07 C6.81 9.85, 10.14 5.02, 11.75 2.26 M3.22 12.07 C5.73 9.03, 8.2 6.23, 11.75 2.26 M1.64 19.98 C6.09 12.27, 12.98 5.5, 18.7 0.36 M1.64 19.98 C8.39 12.89, 14.46 6.46, 18.7 0.36 M2.04 25.62 C10.41 16.64, 18.15 5.23, 23.69 0.72 M2.04 25.62 C8.82 17.87, 15.82 9.98, 23.69 0.72 M2.43 31.27 C12.43 19.02, 21.43 8.12, 29.33 0.32 M2.43 31.27 C12.39 19.47, 23.06 6.7, 29.33 0.32 M2.17 37.66 C11.55 26.66, 22.41 14.62, 34.32 0.68 M2.17 37.66 C10.21 28.02, 16.21 19.4, 34.32 0.68 M2.57 43.31 C17.59 29.18, 29.53 10.33, 39.96 0.29 M2.57 43.31 C12.84 29.62, 23.55 17.19, 39.96 0.29 M2.96 48.95 C13.89 37.33, 23.94 27.45, 44.95 0.65 M2.96 48.95 C12.15 39.19, 21.48 28.05, 44.95 0.65 M2.7 55.35 C18.15 39.71, 29.51 21.54, 50.59 0.25 M2.7 55.35 C17.6 39.38, 31.79 21.11, 50.59 0.25 M1.78 62.5 C12.49 50.69, 25.17 37.8, 55.58 0.61 M1.78 62.5 C15.3 46.4, 28.42 30.61, 55.58 0.61 M4.14 65.88 C24.83 42.59, 41.72 18.35, 61.22 0.22 M4.14 65.88 C19.06 48.55, 33 32.68, 61.22 0.22 M6.51 69.26 C27.58 45.65, 46.61 22.58, 66.21 0.58 M6.51 69.26 C23.01 50.65, 39.79 31.91, 66.21 0.58 M9.53 71.88 C34.01 43.73, 54.68 19.14, 71.85 0.18 M9.53 71.88 C31.35 46, 54.96 19.7, 71.85 0.18 M14.51 72.24 C38.4 44.82, 62.59 15.17, 76.84 0.54 M14.51 72.24 C27.82 56.01, 41.14 41.54, 76.84 0.54 M19.5 72.6 C39.35 53.71, 57.84 31.06, 81.83 0.9 M19.5 72.6 C32.39 57.18, 45.56 43.75, 81.83 0.9 M25.14 72.21 C36.84 58.49, 49.51 42.01, 87.47 0.51 M25.14 72.21 C47.07 46.93, 67.47 22.23, 87.47 0.51 M30.13 72.57 C50.19 48.28, 70.28 29.47, 92.46 0.87 M30.13 72.57 C52.02 48.04, 73.63 22.54, 92.46 0.87 M35.77 72.17 C50.82 52.53, 67.43 35.89, 98.1 0.48 M35.77 72.17 C58.73 45.7, 83.47 18.22, 98.1 0.48 M40.76 72.53 C58.76 49.43, 81.71 27.57, 103.09 0.84 M40.76 72.53 C61.54 49.38, 81.4 24.48, 103.09 0.84 M46.4 72.14 C72.55 45.38, 94.6 18.27, 108.73 0.44 M46.4 72.14 C67.5 48.15, 88.2 25.19, 108.73 0.44 M51.39 72.5 C65.15 54.85, 80.19 39.14, 113.72 0.8 M51.39 72.5 C68.98 52.57, 84.87 34.13, 113.72 0.8 M57.03 72.1 C82.22 44.47, 105.49 15.61, 119.36 0.41 M57.03 72.1 C74.98 50.67, 93.49 30.75, 119.36 0.41 M62.02 72.46 C79.13 53.6, 94.38 35.79, 124.35 0.77 M62.02 72.46 C78.8 53.12, 96.11 32.7, 124.35 0.77 M67.66 72.07 C81.56 54.65, 96.87 37.49, 129.99 0.37 M67.66 72.07 C80.97 58.06, 92.78 42.69, 129.99 0.37 M72.65 72.43 C91.58 49.38, 115.62 25.34, 134.98 0.73 M72.65 72.43 C85.69 58.22, 98.58 42.02, 134.98 0.73 M78.29 72.03 C97.53 48.85, 115.84 28.88, 140.62 0.34 M78.29 72.03 C98.09 49.33, 116.65 26.05, 140.62 0.34 M83.28 72.4 C106 44.84, 130.33 19.39, 145.61 0.7 M83.28 72.4 C103.67 48.75, 123.66 25.52, 145.61 0.7 M88.92 72 C108.76 49.52, 124.1 31.33, 151.25 0.3 M88.92 72 C110.8 47.34, 131.99 22.14, 151.25 0.3 M93.91 72.36 C108.06 58.96, 121.16 41.02, 156.24 0.66 M93.91 72.36 C112.66 51.98, 128.84 32.55, 156.24 0.66 M98.9 72.72 C116.9 54.47, 135.68 32.86, 161.88 0.27 M98.9 72.72 C117.9 50.95, 136.6 27.11, 161.88 0.27 M104.54 72.33 C128.04 44.12, 151.19 20.62, 166.87 0.63 M104.54 72.33 C120.37 53.75, 136.44 36.63, 166.87 0.63 M109.53 72.69 C131.65 46.62, 152.17 23.45, 171.85 0.99 M109.53 72.69 C125.74 53.75, 140.85 36.14, 171.85 0.99 M115.17 72.29 C128.88 56.47, 143.87 39.16, 177.5 0.59 M115.17 72.29 C129.31 54.86, 144.77 37.14, 177.5 0.59 M120.16 72.65 C142.48 50.21, 163.85 23.53, 182.48 0.95 M120.16 72.65 C141.11 49.51, 160.67 24.62, 182.48 0.95 M125.8 72.26 C137.08 59.69, 151.02 42.31, 188.13 0.56 M125.8 72.26 C140.15 56.47, 153.91 40.38, 188.13 0.56 M130.79 72.62 C146.08 55.24, 160.18 37.76, 193.11 0.92 M130.79 72.62 C155.52 46.18, 178.79 17.11, 193.11 0.92 M136.43 72.22 C152.91 56.9, 167.32 39.06, 198.76 0.53 M136.43 72.22 C156.1 48.29, 176.63 25.4, 198.76 0.53 M141.42 72.58 C156.89 52.41, 173.27 37.02, 203.74 0.89 M141.42 72.58 C161.04 50.29, 182.62 25.94, 203.74 0.89 M147.06 72.19 C165.58 47.7, 186.86 27.72, 209.39 0.49 M147.06 72.19 C165.06 51.27, 183.02 29.8, 209.39 0.49 M152.05 72.55 C170.29 50.79, 191.93 24.86, 214.37 0.85 M152.05 72.55 C171.97 49.09, 192.13 25.2, 214.37 0.85 M157.69 72.15 C174.15 50.5, 195.59 28.58, 220.02 0.46 M157.69 72.15 C170.79 58.09, 183.68 42.73, 220.02 0.46 M162.68 72.51 C184.18 45.41, 207.77 18.85, 225 0.82 M162.68 72.51 C178.95 53.34, 196.52 32.56, 225 0.82 M168.32 72.12 C188.23 49.81, 208.96 26.56, 230.65 0.42 M168.32 72.12 C190.24 46.41, 212.44 22.62, 230.65 0.42 M173.31 72.48 C189.88 52.59, 210.04 33.85, 235.63 0.78 M173.31 72.48 C191.39 52.02, 210.17 30.98, 235.63 0.78 M178.95 72.08 C205.86 43.69, 228.87 15.31, 241.28 0.39 M178.95 72.08 C203.95 43.31, 226.98 14.85, 241.28 0.39 M183.94 72.44 C204.71 49.97, 223.18 25.37, 246.26 0.75 M183.94 72.44 C208.63 44.51, 234.72 15.57, 246.26 0.75 M188.93 72.8 C212.82 42.74, 239.23 15.89, 251.91 0.35 M188.93 72.8 C211.09 47.51, 232.41 22.08, 251.91 0.35 M194.57 72.41 C215.92 45.12, 236.88 19.55, 256.89 0.71 M194.57 72.41 C214.28 50.94, 233.06 28.26, 256.89 0.71 M199.56 72.77 C214.52 55.64, 233.02 37.51, 261.88 1.07 M199.56 72.77 C214.28 54.9, 230.02 37.8, 261.88 1.07 M205.2 72.38 C227.19 44.01, 253.96 18.63, 267.52 0.68 M205.2 72.38 C229.71 44.25, 253.11 16.15, 267.52 0.68 M210.19 72.74 C223.55 56.47, 238.9 39.48, 272.51 1.04 M210.19 72.74 C227.3 52.57, 243.72 33.28, 272.51 1.04 M215.83 72.34 C237.84 47.14, 261.14 19.36, 278.15 0.64 M215.83 72.34 C235.08 50.79, 253.57 28.53, 278.15 0.64 M220.82 72.7 C244.59 45.03, 266.61 19.2, 283.14 1 M220.82 72.7 C232.58 57.95, 245.86 44.5, 283.14 1 M226.46 72.31 C243.49 50.51, 261.68 34.03, 288.78 0.61 M226.46 72.31 C250.88 43.95, 274.74 18.11, 288.78 0.61 M231.45 72.67 C250.11 52.28, 266.99 32.82, 293.77 0.97 M231.45 72.67 C254 44.8, 277.52 19, 293.77 0.97 M237.09 72.27 C253.3 52.76, 269.09 35.25, 299.41 0.57 M237.09 72.27 C252.09 56.32, 265.4 39.54, 299.41 0.57 M242.08 72.63 C264.48 43.32, 291.17 18.09, 304.4 0.93 M242.08 72.63 C262.87 48.34, 282.97 25.75, 304.4 0.93 M247.72 72.24 C269.84 45.57, 294.55 20.65, 310.05 0.54 M247.72 72.24 C268.76 46.68, 289.18 23.71, 310.05 0.54 M252.71 72.6 C277.99 43.27, 300.77 15.03, 315.03 0.9 M252.71 72.6 C274.2 46.56, 295.66 21.67, 315.03 0.9 M258.35 72.2 C278.72 52.78, 295.58 28.77, 320.68 0.51 M258.35 72.2 C277.29 52.59, 295.55 31.39, 320.68 0.51 M263.34 72.56 C282.01 54.41, 297.47 31.28, 325.66 0.87 M263.34 72.56 C283.9 48.99, 304.69 26.47, 325.66 0.87 M268.98 72.17 C289.46 51.23, 307.27 28.11, 331.31 0.47 M268.98 72.17 C288.1 50.13, 307.29 26.25, 331.31 0.47 M273.97 72.53 C293.3 51.64, 311.27 29.62, 336.29 0.83 M273.97 72.53 C293.61 48.4, 314.96 25.37, 336.29 0.83 M278.95 72.89 C301.02 45.35, 325.91 17.12, 341.28 1.19 M278.95 72.89 C299.52 48.65, 322.03 23.3, 341.28 1.19 M284.6 72.49 C306.41 45.36, 330.73 18.78, 344.95 3.06 M284.6 72.49 C307.52 45.85, 330.8 19.25, 344.95 3.06 M289.58 72.85 C310.44 50.15, 328.58 28.45, 348.63 4.93 M289.58 72.85 C311 47.53, 333.14 20.41, 348.63 4.93 M295.23 72.46 C316.46 50.96, 332.33 30.08, 352.3 6.8 M295.23 72.46 C311.72 51.16, 331.01 31.13, 352.3 6.8 M300.21 72.82 C315.04 54.31, 331.65 37.65, 354.01 10.93 M300.21 72.82 C316.19 54.89, 332.01 35.18, 354.01 10.93 M305.86 72.43 C317.66 61.71, 326.02 47.95, 353.75 17.33 M305.86 72.43 C322.05 54.74, 336.23 39.31, 353.75 17.33 M310.84 72.79 C318.74 60.82, 329.4 49.45, 354.14 22.97 M310.84 72.79 C322.28 59.97, 333.62 45.95, 354.14 22.97 M316.49 72.39 C330.2 56.17, 342.73 41.09, 354.54 28.62 M316.49 72.39 C329.29 57.74, 343.87 42.69, 354.54 28.62 M321.47 72.75 C332.43 59.85, 346.37 45.91, 354.28 35.02 M321.47 72.75 C330.97 61.36, 341.48 49.51, 354.28 35.02 M327.12 72.36 C336.14 59.84, 349.15 48.69, 354.67 40.66 M327.12 72.36 C337.93 60.73, 348.29 48.63, 354.67 40.66 M332.1 72.72 C337.03 67.45, 346.24 58.75, 354.41 47.06 M332.1 72.72 C339.09 62.87, 348.95 54.03, 354.41 47.06 M337.09 73.08 C342.18 63.96, 351.04 57.61, 354.8 52.7 M337.09 73.08 C343.9 66.69, 348.41 59.44, 354.8 52.7 M344.05 71.17 C348.68 68.47, 351.32 64.38, 354.54 59.1 M344.05 71.17 C347.55 66.9, 352.34 62.59, 354.54 59.1" stroke="#ffc9c9" stroke-width="0.5" fill="none"></path><path d="M18 0 M18 0 C97.22 2.09, 179.18 0.05, 336 0 M18 0 C116.78 -2.08, 215.99 -1.62, 336 0 M336 0 C349.8 -1.27, 352.63 7.99, 354 18 M336 0 C346.22 1.38, 355.04 5.63, 354 18 M354 18 C352.38 32.38, 355.91 45.02, 354 54 M354 18 C354.57 31.96, 354.31 43.54, 354 54 M354 54 C354.57 67.56, 347.94 72.56, 336 72 M354 54 C353.18 66.86, 346.15 73.87, 336 72 M336 72 C219.75 74.53, 107.47 72.38, 18 72 M336 72 C237.77 71.08, 139.22 70.8, 18 72 M18 72 C6.86 70.62, 1.91 64.04, 0 54 M18 72 C8.09 71.35, 0.68 66.48, 0 54 M0 54 C-1.72 47.06, -0.61 37.32, 0 18 M0 54 C0.52 46.24, -0.35 37.21, 0 18 M0 18 C0.87 4.89, 4.22 1.75, 18 0 M0 18 C0.62 5.54, 6.25 2.26, 18 0" stroke="#1e1e1e" stroke-width="1" fill="none"></path></g><g transform="translate(284.8184814453125 33.5) rotate(0 16.41998291015625 12.5)"><text x="16.41998291015625" y="0" font-family="Virgil, Segoe UI Emoji" font-size="20px" fill="#1e1e1e" text-anchor="middle" style="white-space: pre;" direction="ltr" dominant-baseline="text-before-edge">App</text></g><g stroke-linecap="round"><g transform="translate(301.9539489746094 80.40097045898438) rotate(0 -0.06416063834910801 22.207567826258014)"><path d="M-0.64 0.34 C-0.92 7.66, -0.52 36.32, -0.57 43.4 M1.22 -0.52 C0.72 7.04, -0.85 37.55, -1.35 44.94" stroke="#1e1e1e" stroke-width="1" fill="none"></path></g><g transform="translate(301.9539489746094 80.40097045898438) rotate(0 -0.06416063834910801 22.207567826258014)"><path d="M-7 24.69 C-5.23 32.2, -3.76 39.86, -0.41 44.87 M-6.83 24.56 C-4.69 29.96, -3.71 35.22, -2.2 45.68" stroke="#1e1e1e" stroke-width="1" fill="none"></path></g><g transform="translate(301.9539489746094 80.40097045898438) rotate(0 -0.06416063834910801 22.207567826258014)"><path d="M7.82 25.55 C3.81 32.65, -0.52 39.97, -0.41 44.87 M7.99 25.43 C5.98 30.61, 2.82 35.63, -2.2 45.68" stroke="#1e1e1e" stroke-width="1" fill="none"></path></g></g><mask></mask><g stroke-linecap="round"><g transform="translate(238.79299926757812 197.96475219726562) rotate(0 -45.89987068783955 14.432205758285704)"><path d="M0.56 -0.47 C-14.63 4.8, -76.36 25.76, -91.63 30.63 M-0.61 -1.77 C-15.88 3.28, -77.25 23.86, -92.36 29.09" stroke="#1e1e1e" stroke-width="1" fill="none"></path></g><g transform="translate(238.79299926757812 197.96475219726562) rotate(0 -45.89987068783955 14.432205758285704)"><path d="M-69.76 10.99 C-73.34 16.97, -82.58 19.76, -90.62 28.53 M-68.41 11.06 C-75.77 15.81, -82.65 20.37, -92.02 30.08" stroke="#1e1e1e" stroke-width="1" fill="none"></path></g><g transform="translate(238.79299926757812 197.96475219726562) rotate(0 -45.89987068783955 14.432205758285704)"><path d="M-63.15 30.42 C-68.29 31.38, -79.24 29.12, -90.62 28.53 M-61.81 30.49 C-71.1 29.68, -79.86 28.71, -92.02 30.08" stroke="#1e1e1e" stroke-width="1" fill="none"></path></g></g><mask></mask><g stroke-linecap="round"><g transform="translate(366.8717346191406 197.53408813476562) rotate(0 38.62803256695628 17.971270013623894)"><path d="M0.64 -0.18 C13.54 5.92, 65.04 31.03, 77.73 37.26 M-0.48 -1.32 C12.28 4.38, 64.33 29.43, 77.05 35.52" stroke="#1e1e1e" stroke-width="1" fill="none"></path></g><g transform="translate(366.8717346191406 197.53408813476562) rotate(0 38.62803256695628 17.971270013623894)"><path d="M46.89 33.41 C58.21 32.67, 67.91 33.18, 75.88 37.45 M47.2 32.37 C53.49 34.1, 62.23 34.3, 76.09 34.67" stroke="#1e1e1e" stroke-width="1" fill="none"></path></g><g transform="translate(366.8717346191406 197.53408813476562) rotate(0 38.62803256695628 17.971270013623894)"><path d="M55.77 14.91 C64.27 20.29, 71.06 26.87, 75.88 37.45 M56.07 13.87 C60.3 19.9, 66.96 24.46, 76.09 34.67" stroke="#1e1e1e" stroke-width="1" fill="none"></path></g></g><mask></mask><g transform="translate(543.5234069824219 232.2276611328125) rotate(0 34.5899658203125 12.5)"><text x="0" y="0" font-family="Virgil, Segoe UI Emoji" font-size="20px" fill="#e03131" text-anchor="start" style="white-space: pre;" direction="ltr" dominant-baseline="text-before-edge">OnPush</text></g><g transform="translate(208.99221801757812 233.81240844726562) rotate(0 34.5899658203125 12.5)"><text x="0" y="0" font-family="Virgil, Segoe UI Emoji" font-size="20px" fill="#e03131" text-anchor="start" style="white-space: pre;" direction="ltr" dominant-baseline="text-before-edge">OnPush</text></g></svg>
